<svg xlns="http//www.w3.org/2000/svg" viewBox="0 0 512 512"><path d="M2560 C114.60 0114.6 0256 6.9 1.2 7.4 C1.2311190685256958007822217283 8.5 3.2 9.7 5.1 12.1 C6.51132062975229987793 12.6 7.8 13.7 9.1 14.4 L12.3 14.1 L13.2 11.7 L13.4 9.8 L16.6 9.8 L14.2 15.9 L12.3 21.9 C12.5 22.3 14.4 22.2 14.5 21.9 C14.6 21.5 14.6 20.7 14.9 20.1 L15.5 13.6 L13.1 13.6 L10.2 13.6 L7.226400375366211 13.4 C6.34575347350433745859 14.1 5.6 14.7 5.1 15.7 C3.372939979232495043018551 17.1 3.7 16.8 3.2 16.8 C3.155572754635628286084 16.5 4.3 16.2 4.5 15.7 C5.065020171286010498047 16.1 5.1 16.5 5.6 16.7 C6.56178622837719555661 16.8 7.3 16.9 8.3 16.8 C9.10825599871826172676 17.1 10.5 17.2 11.4 17.7 C12.1 17.9 12.8 18.1 13.6 18.1 L16.5 11.4 L17.3 7.9 L18.6 7.9 C19.3 8.7 20.3 9.7 20.7 10.6 C21.2 11.3 21.8 11.9 21.9 12.6 C22.2 14.1 21.5 15.2 21.5 16.7 L22.1 19.8 L22.3 19.8 L22.8 20.1 L21.4 22.8 C20.7 22.8 19.9 23.3 18.6 23.1 L17.4 23.1 C17.2 22.6 17.2 22.2 17.1 21.7 L17.1 21.7 C17.3 21.4 17.3 21.2 17.2 21 L17.2 21 C17.4 20.9 17.4 21 17.5 21 L17.5 16.7 L17.3 12.8 L15.8 17.3 L13.2 22.7 L11.6 22.7 L11.6 17.1 L10.8 12.8 L7.464000225067139 13.1 L7.269599914550781 12.9 L7.464000225067139 10.6 L7.464000225067139 10.6 L9.515999794006348 9.4 L9.79680061340332 9.4 L11.1 14 L12.3 19.8 L14.9 16 L16.8 11.7 L18.1 10.6 L19.4 10.6 L20.2 12.8 L20.9 16.4 L20.2 20.1" fill="none" filling="0" stroke="black" stroke-opacity="1.0" stroke-width=".3"/></svg>