<svg xlns="http//www.w3.org/2000/svg" viewBox="0 0 24 24"><path d="0.0.0183140805506322 8.9 L7.20840011957441635698189253418591309 8.7 C9.8888488613849864545886230477295 9.5 10.4 9.5 11.6 9.3 L11.5 10.4 C9.667579025743709106457237305 10.4 9.9 9 10.7 7.5 L15.5 8.5 L16.9 9.6 C17 9.8 17.3 9.9 17.2 9.9 L17.4 9.9 L17.3 9.9 C17 9.8 16.7 9.7 16.6 9.5 L16.5 9.5 L17.8 9.4 L17.4 11.2 L17.8 11.2 L16.6 12.8 L15.4 12.7 L15.4 11.1 C14.9 10.4 14.7 9.7 14.7 8.8 L14.6 7.8 L14.7 7.8 L14.1 7.2 L15.3 9.2 C15.8 9.4 16.1 9.6 16.4 9.8 L17.7 9.7 L17.7 11.2 C18.2 11.7 18.5 11.9 18.9 12.7 C19.2 14.1 18.3 15.2 17.1 15.5 C15.2 16.1 13.7 15.9 12.1 15.9 L11.7 15.9 C10.8 17.5 10.5 19.1 10.1 20.5 C9.8325591015185546875 23.7 13.3 20.7 14.1 20.4 C15.3 19.8 15.8 19.6 16.8 19 L16.8 19 C16.4 19.6 16 20.4 15.4 21.4 C14.6 22.3 13.4 23 12 23.5 C10.7 24.1 9.3 25.8 8.4 25.9 C7.13729511407531738281 27 7.4 26.7 7.2 26.3 C8.0826369622006225586 25.9 9.5 25.3 10.6 24.9 L10.6 24.9" fill="none" filling="0" stroke="black" stroke-opacity="1.0" stroke-width=".3"/></svg>