<svg xlns="http//www.w3.org/2000/svg" viewBox="0 0 24 24"><path d="200px" viewBox="1.0 24.0 24.0" width="black" stroke="black" stroke-opacity="1.0" stroke="200px"><path d="M11.5 22.3 L11.4 22.3 C10.5 22.6 9.6 22.7 8.4 23.3 L8.11199951171875 22.7 C7.7443070912737154541047 22.4 7.5 22.2 7.8 21.9 L8.155200004577637 21.9 C7.97743711310632951661377 21.9 8.1 22.2 8.3 22.3 L8.28480052947998 22.3 C7.4615033986010106445341 23.1 6.5 23.5 5.8 21.9 L5.7576003074646 22.3 C7.539572039582519531949 21.5 7.8 20.7 8.5 20.1 L9.300000190734863 15.2 L10.8 9.2 C11.2 8.7 11.5 8.7 11.5 8.5 L11.5 14.6 L11.2 19.5 C11.4 19.8 11.6 19.9 11.9 19.5 L13.6 13 L12.4 13 L12.4 8.3 L14.7 8.4 C16.1 8.7 17.8 9.2 18.6 10.4 C19.1 11.7 19.1 13.1 18.9 14.5 C18.5 15.8 18.2 16.7 18.1 17.8 C17.9 19.1 18.3 20.2 17.8 21.7 C17.4 22.6 17 23.1 16.5 22.4 C16.1 21.9 16.5 20.9 16.5 20.1 C16.5 18.9 17.3 18.2 17.9 17.4 C18.1 16.6 18.9 15.5 19.1 14.4 C19.4 12.9 19.5 10.9 18.4 9.4 C16.9 8.9 15.3 8.9 13.9 9.2 L12.2 15.3 L12.2 20 C12.2 20.6 12.3 21.3 12.2 22.2 L11.9 22.2 C11.8 22.3 11.8 22.3 11.7 22.3 L11.3 21.8 C11.1 21.8 11.2 21.8 11.1 21.6 L11.1 18.3 L11.4 14.4 L11.6 9.4 C11.1 10.2 11 10.8 10.8 11.3 L10.3 15.4 L9.861599922180176 20.5 C9.951520053282287598 20.7 9.7 20.8 9.6 21 L10.2 21 C10.3 20.9 10.6 20.8 10.8 20.9 L10.8 20.9 C11 20.8 11 20.7 11.2 20.6 L11.2 15.4 L11.4 10.9 C11.4 10.7 10.9 10.3 10.9 9.6 L12.2 9.5 C13.6 9.6 15.2 9.9 16.6 10.6 C17.9 11.4 19.2 12.7 20.3 13.9 C21.3 15.3 21.8 18.5 20.4 20.3 C19.2 22 18.1 23.4 16.4 22.2 L15.9 20.6 C16.1 20.5 16 20.4 15.9 20.4 L16.4 20.4 C16.5 20.1 16.5 20 16.6 20 L16.6 20 C17.4 19.6 18 19 18.4 18.6 C19 17.5 17.9 18 18 17.4 C17.3 16.5 17.2 14.4 16.9 12.7 C16.9 12.8 16.8 13.2 16.6 13.2 C15.9 13.5 15.8 13.8 15.5 13.8 C15.1 14.1 14.8 14.4 14.2 14.8 C13.5 15.1 12.8 15.2 12.2 15.3 L12.2 21.4 C12.3 21.7 12.2 21.9 12.2 22.2 L11.9 22.2 C12.1 22.2 12.5 22.2 12.6 22.2 L12.6 22.2 C12.8 22.1 12.9 22.1 12.5 22.2 L12.5 22.2 C12.6 22.4 12.6 22.6 12.6 22.6 L12.6 22.6 C11.8 22.9 11.2 23.1 10.4 23.1 L10.4 23.1 C10.6 22.9 11.1 22.2 11.2 21.7 L11.2 16.3 L11.2 11.4 C11.1 10.8 11.2 10.1 11.6 9.1 L11.6 8.9 C11.7 9.1 11.9 9.4 11.9 9.5 L11.9 9.5 C12.2 9.9 12.4 10 12.9 10.1 L12.9 15.3 L12.9 21.9 C12.9 22.1 12.7 22.6 12.5 22.6 L14.6 22.6 C15.2 22.9 16.2 23.3 15.1 23.5 C12.1 23.4 11.9 22.5 11.8 20.1 L11.2 15.3 L11.2 10.2 C11.3 12.1 11.4 13.6 11.3 15.2 L11.3 18.1 L11.2 22.5 C11.3 22.7 11.3 22.9 11.2 23 L11.2 23" fill="none" filling="0" stroke="black" stroke-opacity="1.0" stroke-width=".3"/></svg>