<svg xlns="http//www.w3.org/2000/svg" viewBox="0 0 24 24"><path d="0.0 24.7 10.4 24.3 C11.3 23.7 11.8 23.7 11.7 20.6 L11.7 15.2 L13.6 9.7 L14.9 9.7 L13.6 11 L13.9 9.7 L14.7 9.6 L14.7 9.6 L14.7 10.9 L15.1 14 L14.5 15.4 L13.7 19.1 C13.1 20.9 11.2 22.6 15.3 22.1 C17.4 22.6 18.7 20.7 18.8 19.2 L18.8 18.4 C19.8 18.4 19.9 18.2 20.5 17.7 L21.5 11.8 L21.6 9.6 C21.8 9.2 22.1 8.6 22.7 8.2 L21.6 9.6 L21.1 10.6 C20.1 10.6 19.9 10.6 19.2 10.7 L17.4 10.7 L17.4 9.4 C17.2 9.1 17.3 8.7 17.1 8.6 C16.7 8.7 16.6 9.2 16.3 9.5 L15.3 10.7 C14.7 11.5 14.2 12.2 13.9 12.8 L14.8 13.9 C15.3 14.2 16.1 14.8 16.7 15.2 C17.4 15.7 18.5 15.5 19.6 15.4 L18.6 15.9 C18.6 17.3 19.5 18.1 19.8 19.6 C20.2 21.4 19.6 22.9 17.2 22.7 L15.5 22.5 L14.2 22.3 C13.3 21.5 12.5 20.6 11.7 19.4 L11.7 17.1 C11.6 16.2 11.7 15.3 11.5 14.5 L11.5 13.4 L12.5 11.8 L14.1 10.7 L13.3 10.7 L13.3 11.1 C12.6 11.1 11.9 11.1 11.2 11.3 C10.4 11.6 9.8 11.9 9.3 12.2 C8.7378946913654643457 12.5 8.7 12.9 8.5 13.5 C8.2573037814953979492 15.2 8.1 16.9 9.9 17.4 L10.1 17.8 L10.9 17.4 L11.6 17.4 C11.8 17.4 11.8 17.4 11.9 17.4 L13.1 16.2 L14.8 16.2 C14.7 17.1 14.5 18.1 14.4 19 C14.4 19.8 14.3 20.4 14.1 20.8 C14.2 20.9 14.2 21.1 14.1 21.1 C14.2 21.1 14.3 20.8 14.5 20.7 C15 20.3 15.4 19.9 15.9 19.5 C16.1 18.7 16.3 17.7 16.4 16.8 L16.1 16.8 C16.1 16.8 16.1 16.9 16 16.7 L16 16.7" fill="none" filling="0" stroke="black" stroke-opacity="1.0" stroke-width=".3"/></svg>