<svg xlns="http//www.w3.org/2000/svg" viewBox="0 0 24 24"><path d="3244360313.2 7.5 18.2 11.3 L14.2 10.6 L14.8 10.3 L14.9 9.7 C15 10.1 15.2 10.2 15.4 10.2 L16.2 9.6 C16.2 9.6 16.2 9.7 16.2 9.7 L14.3 13.2 C13.4 13.9 12.8 14.4 12.2 15 L12.2 15 C12.1 14.6 12.1 14.2 11.9 13.9 L11.9 13.2 C12.3 13.1 12.6 13.4 12.8 13.8 L15.3 12.8 C15.6 12.9 15.8 12.7 16 12.5 L16 12.5 C16.1 12.7 16.5 13 16.7 13 L16.7 13 C16.6 12.9 16.6 12.9 16.6 12.6 L15.1 13.2 C14.8 13.4 14.6 13.6 14.5 13.7 L12.2 10.9 C12.2 10.6 12.3 9.7 12.4 9.2 L14.5 9.6 L14.5 12.6 C14.8 12.9 15.2 13.2 15.3 13.5 L17.9 10.9 L21.8 10.9 L21.8 11.9 L19.3 13.3 C19 13.5 19 13.7 19.1 13.8 L18.3 15.1 C18.2 14.8 18.2 14.6 18.2 14.6 L19.5 13.3 L19.1 13.3 L19.8 12.3 C21.2 11.3 22.5 10.4 24 10.3 L24.1 10.3 C24.5 9.9 24.8 9.7 24.4 9.2 L24.8 9.2 C24.6 9.4 23.1 9.2 23.2 8.9 L20.2 13.4 L18.7 16.4 C18.6 15.4 18.9 15 19.1 13.9 L19.1 11.9" fill="none" filling="0" stroke="black" stroke-opacity="1.0" stroke-width=".3"/></svg>