<svg height="200px" viewBox="0.0 0.0 24.0 24.0" width="200px"><path d="M4.996875286102295 7.8 L10.8 7.8 L15.3 7.8 L16.7 12.0 L17.4 16.9 L17.4 22.8 L14.1 22.8 L14.1 18.7 L9.384374618530273 18.7 L6.009375095367432 18.7 L5.25 17.9 L4.996875286102295 12.1 L4.996875286102295 7.8" fill="none" filling="0" stroke="black" stroke-opacity="1.0" stroke-width=".3"/><path d="M6.009375095367432 8 L10.4 8 L15.2 8 L15.2 12.0 L15.2 16.7 L15.2 21.3 L13.2 21.3 L12.6 16.7 L9.384374618530273 16.7 L9.384374618530273 22.8 L6.009375095367432 22.8 L6.009375095367432 16.7 L5.925000190734863 12.0 L5.925000190734863 8" fill="none" filling="0" stroke="black" stroke-opacity="1.0" stroke-width=".3"/><path d="M13.1 8.4 L13.1 12.0 L13.1 16.7 L12.1 16.7 L12.1 12.0 L12.1 8.4 L13.1 8.4" fill="none" filling="0" stroke="black" stroke-opacity="1.0" stroke-width=".3"/><path d="M4.996875286102295 13.8 L6.009375095367432 13.8 L6.009375095367432 15 L5.418750286102295 15 L4.996875286102295 13.8" fill="none" filling="0" stroke="black" stroke-opacity="1.0" stroke-width=".3"/><path d="M7.950000286102295 13.8 L10.3 13.8 L10.3 15.9 L9.384374618530273 15.9 L9.384374618530273 15.9 L9.384374618530273 16.4 L8.709375381469727 15.9 L8.034375190734863 15.2 L8.034375190734863 15 L7.950000286102295 13.8" fill="none" filling="0" stroke="black" stroke-opacity="1.0" stroke-width=".3"/></svg>