<svg height="200px" viewBox="0.0 0.0 24.0 24.0" width="200px"><path d="M14.6 4.9 L14.6 4.9 C16.1 4.9 17.5 5.1 18.5 5.8 C20.2 6.9 20.9 8.2 21.2 10.2 C21.6 11.8 21.5 13.5 20.5 15.3 C19.6 17.1 18.1 18.6 15.6 19.3 C13.6 19.8 11.4 19.4 9.4 18.4 C7.505120572802734 17.4 5.9 15.8 5.3 13.8 C4.649285766418457 12.3 4.5 10.8 5 9.3 C5.463071310473633 7.9 6.2 6.9 7.5 5.8 C9.625697638368652 4.2 11.8 3.9 14.6 4.9 L14.6 4.9" fill="none" filling="0" stroke="black" stroke-opacity="1.0" stroke-width=".3"/><path d="M13.2 5.8 L13.2 5.8 C15.8 5.9 17.5 6.2 19 8.2 C20.6 10.2 20.5 12.7 19.7 14.8 C19 16.8 17.6 18.4 15.6 19 C13.5 20 11.1 19.9 9.2 19 C7.401928359619141 18.1 5.9 16.7 5.2 14.8 C4.766438933591357 13.2 4.4 11.4 4.9 9.9 C5.99692354736328125 8.1 7.4 6.2 9.7 5.6 C11.3 5.1 12.9 5.2 14.6 5.8 L14.6 5.8 C14.8 5.9 15 5.9 15.1 5.8 L15.1 5.8 C15.2 5.8 15.3 5.8 15.3 5.8 L15.3 5.8 C14.7 5.8 14.4 5.8 14.1 5.8 L14.1 5.8" fill="none" filling="0" stroke="black" stroke-opacity="1.0" stroke-width=".3"/><path d="M8.709375381469727 12.5 L8.709375381469727 12.5 C9.393097474741211 12.6 10.6 12.6 11.4 12.8 C12.6 13 13.1 13.8 13.5 14.7 C13.7 16.8 12.3 19.5 9.7 19.5 C8.09970206274414 19.3 7.4 18.1 6.8 16.9 C6.399848847963721 15.2 7.6 13.7 8.7 12.5 L8.709375381469727 12.5" fill="none" filling="0" stroke="black" stroke-opacity="1.0" stroke-width=".3"/></svg>