<svg height="200px" viewBox="0.0 0.0 24.0 24.0" width="200px"><path d="M16.7 11.4 L16.7 11.4 C16.5 13.9 16 15.7 15.2 17.7 C13.9 19.6 12.4 21.1 10.8 22.1 C8.961773022095947 22.9 7.7 23.3 6 22.8 C4.6636804941762695 21.9 3.9 20.5 3.8 18.9 C3.7629250373221357 17.4 4 15.9 4.5 14.3 C5.212179204211426 13 6 11.3 6.8 9.9 C7.921087990916748 8.9 9 7.4 10.1 7.1 C11.9 6.6 13.6 7.1 15.1 8.5 C16.2 9.6 16.5 10.9 16.7 11.4 L16.7 11.4" fill="none" filling="0" stroke="black" stroke-opacity="1.0" stroke-width=".3"/><path d="M16.2 11.9 L16.2 11.9 C16.1 13.2 15.8 14.4 15.4 15.6 C15.2 16.9 14.8 18.4 14.1 19.7 C13.4 21.2 12.4 22.7 11.2 23.1 C9.538346989746094 23.5 8.6 22.6 7.8 21.7 C7.14920415100708 20.3 7.4 18.9 7.3 17.5 C7.152515325065088 15.8 7.4 14.1 7.7 12.3 C8.48685729987793 10.6 9.6 9.3 11.1 9.5 C12.7 9.7 13.8 10.7 14.8 11.9 L14.8 11.9" fill="none" filling="0" stroke="black" stroke-opacity="1.0" stroke-width=".3"/></svg>