<svg height="200px" viewBox="0.0 0.0 24.0 24.0" width="200px"><path d="M15.7 8.8 L15.7 8.8 C15.3 9.8 14.3 9.9 13.8 10.3 C12.3 11.3 10.9 12.7 9.7 14.1 L9.440400123596191 14.1 C11.6 13.5 13.8 13.9 15.6 14.2 L15.8 15.3 L14.2 18.9 C12.5 19.7 10.9 20 9.3 19.8 C7.847284567834471 19.6 6.6 19.3 5.4 18.4 C4.50793287342529 17.8 4.1 16.6 4.1 15.3 C4.100951458947998 13.5 5.6 12.1 7.4 10.9 C9.64681456940918 9.4 12.4 8.1 14.4 7.5 L15.7 7.5 C15.9 8 15.9 8.4 15.7 8.8 L15.7 8.8" fill="none" filling="0" stroke="black" stroke-opacity="1.0" stroke-width=".3"/></svg>