<svg height="200px" viewBox="0.0 0.0 24.0 24.0" width="200px"><path d="M6.254400253295898 22.8 L6.254400253295898 22.8 C6.2612894245910645 22.3 6.4 21.4 6.5 20.8 L6.535200119018555 15.5 L6.297600269317627 10.7 C6.7400007247924805 10.5 6.5 10.3 6.4 10.1 L12.9 10.1 C14.6 10.5 15.4 10.9 15.7 12.6 L15.7 17.6 L15.7 21.2 C15.6 21.4 15.5 21.7 15.4 21.9 C15.3 22 15.2 21.7 15.1 21.7 L15.1 16.5 L15.1 11.3 C15.1 11.2 15.2 11.2 15.1 11.2 L15.1 17.6 L15.1 22.8 C14.7 23.3 14.2 23.3 13.6 23.3 L13.6 19.6 L13.6 16.5 L13.6 11.3 C13.5 11.2 13.5 10.9 13.4 10.7 L8.73840045928955 10.7 C8.523200111328125 12.3 8.5 13.6 8.5 15.1 L8.090400695800781 20.9 C8.39855040986377 21.6 8.2 22.2 8.3 22.8 L8.306400299072266 22.8 C8.080591900062561035 22.9 8 22.9 7.7 22.8 L6.254400253295898 22.8" fill="none" filling="0" stroke="black" stroke-opacity="1.0" stroke-width=".3"/></svg>