<svg height="200px" viewBox="0.0 0.0 24.0 24.0" width="200px"><path d="M12.7 5.3 L12.7 5.3 C14.5 5.9 14.9 6.3 15.9 8 L15.9 8 C16.4 8.1 17 8 17.5 8.3 C18 8.6 18.1 9.2 18.5 9.6 C19.5 10.7 20.4 10.4 20.2 12.4 C20 13.8 18.6 14.1 17.7 14.5 L13.7 14.5 L9.721875190734863 14.5 C9.24375057220459 14.4 8.7 14.4 8.3 14.1 C5.4572014808654785 12.3 7.4 10.1 9.3 8.7 L9.300000190734863 8.7 C9.864903450012207 6.4 10.5 6.1 12.7 5.3 L12.7 5.3" fill="none" filling="0" stroke="black" stroke-opacity="1.0" stroke-width=".3"/><path d="M12.7 5.8 L12.7 5.8 C13.8 6.2 14.8 7 15.5 8 L15.6 8.5 L16 8.4 C16.8 8.5 17.6 9 18.1 9.7 L18.3 10.1 C19.3 11 20.6 12.2 19.2 13.5 C18.8 13.9 18.2 13.9 17.7 14.1 L13.7 14.1 L9.721875190734863 14.1 C9.300000190734863 14 8.8 14 8.5 13.8 C6.028109550476074 12.2 7.7 10.2 9.4 9.1 L9.721875190734863 9.1 L9.721875190734863 8.6 C10.4 6.7 10.8 6.4 12.7 5.8 L12.7 5.8" fill="none" filling="0" stroke="black" stroke-opacity="1.0" stroke-width=".3"/><path d="M12.7 6.2 L12.7 6.2 C13.6 6.6 14.5 7.3 15.1 8.1 L15.3 9 L16.1 8.7 C16.7 8.9 17.3 9.3 17.7 9.8 L17.7 10.3 L18.2 10.5 C19.6 12.2 19.4 12.5 17.7 13.7 L13.7 13.7 L9.721875190734863 13.7 C9.24375057220459 13.5 8.7 13.5 8.3 13.1 C6.630786895751953 11.5 8.2 10.4 9.5 9.6 L10.1 9.5 L10.1 8.7 C10.4 8.1 10.4 7.4 10.9 7 C11.3 6.5 12.1 6.4 12.7 6.2 L12.7 6.2" fill="none" filling="0" stroke="black" stroke-opacity="1.0" stroke-width=".3"/></svg>