<svg height="200px" viewBox="0.0 0.0 24.0 24.0" width="200px"><path d="M18.7 5.6 L18.7 5.6 C17.1 6.8 15.6 8 14.2 9.3 C12.8 10.5 11.5 11.9 10.3 13.5 L10.3 13.5 C11.3 13.2 12 12.9 13 12.9 C15.6 12.9 16.6 15.1 16.1 17.4 C15.7 19.1 14.2 21.1 12.3 22.3 C10.5 23.5 8.3 23.8 6.6 22.2 C4.616949558258057 20.4 5.8 17.3 7 15.4 C7.911016941070557 14 9 12.6 10.3 11.4 C11.5 10.2 12.9 9.1 14.3 8.1 C15.7 7.1 17.2 6.1 18.6 5.3 L18.7 5.6" fill="none" filling="0" stroke="black" stroke-opacity="1.0" stroke-width=".3"/><path d="M14.1 16 L14.1 16 C13.8 17.9 13.3 19.8 11.8 21.2 C11.5 21.6 11.1 21.9 10.7 22.1 C8.92793083190918 23 8.2 22.1 8 20.9 C7.750112056732178 19.6 8.1 17.9 8.4 17 C8.853139877319336 15.9 9.3 15.2 9.9 14.2 L9.883199691772461 14.2 C11 13.9 12.6 13.3 13.6 14.4 C13.9 14.8 13.9 15.4 14.1 16 L14.1 16" fill="none" filling="0" stroke="black" stroke-opacity="1.0" stroke-width=".3"/></svg>