<svg height="200px" viewBox="0.0 0.0 24.0 24.0" width="200px"><path d="M15.1 8.9 L16.6 8.9 C17.1 9.1 17.7 9.1 18.1 9.6 C19.1 10.8 19.1 15 18.2 16.4 C17.9 16.8 17.3 17 16.9 17.2 L11.6 17.2 L11.6 16.6 C11.3 16.2 11 15.9 10.6 15.6 L6.9375 15.6 C6.628125190734863 15.9 6.3 16.2 6 16.6 L6.009375095367432 17.2 L4.996875286102295 17.2 C4.546875476837158 17 4 16.8 3.6 16.4 C2.7852954864501953 15.2 3 12.3 4.2 11.4 C5.37506103515625 10.5 8.6 10.6 10 10.7 C10.1 10.7 12.5 11.3 12.7 11.2 C13.1 10.9 13.1 10.2 13.4 9.8 C14 9 14.2 9.1 15.1 8.9 L15.1 8.9" fill="none" filling="0" stroke="black" stroke-opacity="1.0" stroke-width=".3"/><path d="M15.8 10.1 L15.8 10.1 C16.2 10.2 16.2 11.3 15.8 11.3 C15.4 11.3 15.2 10.6 15.2 10.2 C15.2 10 15.6 10.1 15.8 10.1 L15.8 10.1" fill="none" filling="0" stroke="black" stroke-opacity="1.0" stroke-width=".3"/><path d="M15.6 12.3 L15.6 12.3 C16 12.4 16.4 12.4 16.7 12.6 C18.3 13.7 17 16.4 15.2 15.9 C14.1 15.7 14.2 15.3 13.8 14.4 L13.2 14.4 L13.2 13.8 L13.8 13.8 C14.2 13.1 14.9 12.5 15.6 12.3 L15.6 12.3" fill="none" filling="0" stroke="black" stroke-opacity="1.0" stroke-width=".3"/><path d="M7.275000095367432 12.6 L10.3 12.6 L10.3 15 L7.275000095367432 15 L7.275000095367432 12.6" fill="none" filling="0" stroke="black" stroke-opacity="1.0" stroke-width=".3"/><path d="M7.865624904632568 12.8 L8.456250190734863 12.8 L8.456250190734863 14.7 L7.865624904632568 14.7" fill="none" filling="0" stroke="black" stroke-opacity="1.0" stroke-width=".3"/><path d="M9.131250381469727 12.8 L9.721875190734863 12.8 L9.721875190734863 14.7 L9.131250381469727 14.7" fill="none" filling="0" stroke="black" stroke-opacity="1.0" stroke-width=".3"/><path d="M15.6 12.8 L15.6 12.8 C16 13.1 16.5 13.2 16.7 13.6 C17.9 15.9 13.3 15.7 14.4 13.6 C14.7 13.2 15.2 13.1 15.6 12.8 L15.6 12.8" fill="none" filling="0" stroke="black" stroke-opacity="1.0" stroke-width=".3"/><path d="M15.6 13.2 L15.6 13.2 C15.9 13.3 16.4 13.3 16.4 13.6 C16.4 14.1 16.2 15 15.6 15 C15.1 15 14.8 14.2 14.8 13.6 C14.8 13.3 15.3 13.3 15.6 13.2 L15.6 13.2" fill="none" filling="0" stroke="black" stroke-opacity="1.0" stroke-width=".3"/><path d="M15.6 13.8 L15.6 13.8 C15.6 14.7 15.6 14.7 15.6 13.8 L15.6 13.8" fill="none" filling="0" stroke="black" stroke-opacity="1.0" stroke-width=".3"/><path d="M6.9375 16.3 L10.6 16.3 C10.8 16.4 10.9 16.5 11 16.6 L11 17.7 C10.5 18.9 7.6 18.4 6.7 18 L6.684375286102295 18 C6.656250476837158 17.9 6.6 17.8 6.6 17.7 L6.600000381469727 16.6 C6.712500095367432 16.5 6.8 16.4 6.9 16.3 L6.9375 16.3" fill="none" filling="0" stroke="black" stroke-opacity="1.0" stroke-width=".3"/></svg>