<svg height="200px" viewBox="0.0 0.0 24.0 24.0" width="200px"><path d="M12 10.6 L12 10.6 C11.6 10.2 10.7 10 10.7 9.4 C10.7 6.9 13.7 8.4 13.3 9.4 C13 9.9 12.4 10.2 12 10.6 L12 10.6" fill="none" filling="0" stroke="black" stroke-opacity="1.0" stroke-width=".3"/><path d="M11 25.5 L11 20 L11 14.6 C11.1 14.4 11.2 14.3 11.4 14.2 L12.6 14.2 C12.8 14.3 12.9 14.4 13 14.6 L13 20 L13 25.5 C12.8 27.1 12.6 28.6 10.8 29.2 C9.658599853515625 29.7 7.1 29.7 6.8 28.1 L7.3560004234313965 27.2 C8.025274276733398 27.1 8.6 27.6 9.3 27.6 C10.8 27.6 10.7 26.5 11 25.5 L11 25.5" fill="none" filling="0" stroke="black" stroke-opacity="1.0" stroke-width=".3"/></svg>